<svg aria-roledescription="er" viewBox="0 0 805.1856689453125 606" style="max-width: 805.186px; left: 0px; top: 0px;" xmlns="http://www.w3.org/2000/svg" width="undefined" id="mermaid-svg" height="undefined"><style>#mermaid-svg{font-family:"trebuchet ms",verdana,arial,sans-serif;font-size:16px;fill:#333;}#mermaid-svg .error-icon{fill:#552222;}#mermaid-svg .error-text{fill:#552222;stroke:#552222;}#mermaid-svg .edge-thickness-normal{stroke-width:2px;}#mermaid-svg .edge-thickness-thick{stroke-width:3.5px;}#mermaid-svg .edge-pattern-solid{stroke-dasharray:0;}#mermaid-svg .edge-pattern-dashed{stroke-dasharray:3;}#mermaid-svg .edge-pattern-dotted{stroke-dasharray:2;}#mermaid-svg .marker{fill:#333333;stroke:#333333;}#mermaid-svg .marker.cross{stroke:#333333;}#mermaid-svg svg{font-family:"trebuchet ms",verdana,arial,sans-serif;font-size:16px;}#mermaid-svg .entityBox{fill:#ECECFF;stroke:#9370DB;}#mermaid-svg .attributeBoxOdd{fill:#ffffff;stroke:#9370DB;}#mermaid-svg .attributeBoxEven{fill:#f2f2f2;stroke:#9370DB;}#mermaid-svg .relationshipLabelBox{fill:hsl(80, 100%, 96.2745098039%);opacity:0.7;background-color:hsl(80, 100%, 96.2745098039%);}#mermaid-svg .relationshipLabelBox rect{opacity:0.5;}#mermaid-svg .relationshipLine{stroke:#333333;}#mermaid-svg .entityTitleText{text-anchor:middle;font-size:18px;fill:#333;}#mermaid-svg :root{--mermaid-font-family:"trebuchet ms",verdana,arial,sans-serif;}</style><g></g><defs><marker orient="auto" markerHeight="18" markerWidth="18" refY="9" refX="0" id="ONLY_ONE_START"><path d="M9,0 L9,18 M15,0 L15,18" fill="none" stroke="gray"></path></marker></defs><defs><marker orient="auto" markerHeight="18" markerWidth="18" refY="9" refX="18" id="ONLY_ONE_END"><path d="M3,0 L3,18 M9,0 L9,18" fill="none" stroke="gray"></path></marker></defs><defs><marker orient="auto" markerHeight="18" markerWidth="30" refY="9" refX="0" id="ZERO_OR_ONE_START"><circle r="6" cy="9" cx="21" fill="white" stroke="gray"></circle><path d="M9,0 L9,18" fill="none" stroke="gray"></path></marker></defs><defs><marker orient="auto" markerHeight="18" markerWidth="30" refY="9" refX="30" id="ZERO_OR_ONE_END"><circle r="6" cy="9" cx="9" fill="white" stroke="gray"></circle><path d="M21,0 L21,18" fill="none" stroke="gray"></path></marker></defs><defs><marker orient="auto" markerHeight="36" markerWidth="45" refY="18" refX="18" id="ONE_OR_MORE_START"><path d="M0,18 Q 18,0 36,18 Q 18,36 0,18 M42,9 L42,27" fill="none" stroke="gray"></path></marker></defs><defs><marker orient="auto" markerHeight="36" markerWidth="45" refY="18" refX="27" id="ONE_OR_MORE_END"><path d="M3,9 L3,27 M9,18 Q27,0 45,18 Q27,36 9,18" fill="none" stroke="gray"></path></marker></defs><defs><marker orient="auto" markerHeight="36" markerWidth="57" refY="18" refX="18" id="ZERO_OR_MORE_START"><circle r="6" cy="18" cx="48" fill="white" stroke="gray"></circle><path d="M0,18 Q18,0 36,18 Q18,36 0,18" fill="none" stroke="gray"></path></marker></defs><defs><marker orient="auto" markerHeight="36" markerWidth="57" refY="18" refX="39" id="ZERO_OR_MORE_END"><circle r="6" cy="18" cx="9" fill="white" stroke="gray"></circle><path d="M21,18 Q39,0 57,18 Q39,36 21,18" fill="none" stroke="gray"></path></marker></defs><path style="stroke: gray; fill: none;" marker-start="url(#ZERO_OR_MORE_START)" marker-end="url(#ONLY_ONE_END)" d="M70,198L70,221C70,244,70,290,116.20585378011067,334.1801166398027C162.41170756022134,378.3602332796054,254.82341512044272,420.7204665592107,301.0292689005534,441.9005831990134L347.23512268066406,463.08069983881603" class="er relationshipLine"></path><path style="stroke: gray; fill: none;" marker-start="url(#ZERO_OR_ONE_START)" marker-end="url(#ONLY_ONE_END)" d="M280.9386978149414,231L280.9386978149414,248.5C280.9386978149414,266,280.9386978149414,301,291.9881019592285,332.7516042393972C303.0375061035156,364.5032084787943,325.13631439208984,393.00641695758867,336.18571853637695,407.2580211969858L347.23512268066406,421.509625436383" class="er relationshipLine"></path><path style="stroke: gray; fill: none;" marker-start="url(#ZERO_OR_MORE_START)" marker-end="url(#ONLY_ONE_END)" d="M513.5315475463867,286L513.5315475463867,294.3333333333333C513.5315475463867,302.6666666666667,513.5315475463867,319.3333333333333,502.4821434020996,341.9182709060638C491.4327392578125,364.5032084787943,469.3339309692383,393.00641695758867,458.2845268249512,407.2580211969858L447.23512268066406,421.509625436383" class="er relationshipLine"></path><path style="stroke: gray; fill: none;" marker-start="url(#ZERO_OR_ONE_START)" marker-end="url(#ONLY_ONE_END)" d="M735.1856994628906,209L735.1856994628906,230.16666666666666C735.1856994628906,251.33333333333334,735.1856994628906,293.6666666666667,687.1939366658529,336.1345676383557C639.2021738688151,378.60246861004475,543.2186482747396,421.2049372200895,495.22688547770184,442.50617152511194L447.23512268066406,463.80740583013426" class="er relationshipLine"></path><g transform="translate(347.23512268066406,386 )" id="entity-User-3f6ff853-6bc7-4115-b73e-898dd362c399"><rect height="200" width="100" y="0" x="0" class="er entityBox"></rect><text style="dominant-baseline: middle; text-anchor: middle; font-size: 12px;" transform="translate(50,12)" y="0" x="0" id="text-entity-User-3f6ff853-6bc7-4115-b73e-898dd362c399" class="er entityLabel">User</text><rect height="22" width="41.12232971191406" y="24" x="0" class="er attributeBoxOdd"></rect><text style="dominant-baseline: middle; font-size: 10.2px;" transform="translate(5,35)" y="0" x="0" id="text-entity-User-3f6ff853-6bc7-4115-b73e-898dd362c399-attr-1-type" class="er entityLabel">String</text><rect height="22" width="58.87767028808594" y="24" x="41.12232971191406" class="er attributeBoxOdd"></rect><text style="dominant-baseline: middle; font-size: 10.2px;" transform="translate(46.12232971191406,35)" y="0" x="0" id="text-entity-User-3f6ff853-6bc7-4115-b73e-898dd362c399-attr-1-name" class="er entityLabel">id</text><rect height="22" width="41.12232971191406" y="46" x="0" class="er attributeBoxEven"></rect><text style="dominant-baseline: middle; font-size: 10.2px;" transform="translate(5,57)" y="0" x="0" id="text-entity-User-3f6ff853-6bc7-4115-b73e-898dd362c399-attr-2-type" class="er entityLabel">String</text><rect height="22" width="58.87767028808594" y="46" x="41.12232971191406" class="er attributeBoxEven"></rect><text style="dominant-baseline: middle; font-size: 10.2px;" transform="translate(46.12232971191406,57)" y="0" x="0" id="text-entity-User-3f6ff853-6bc7-4115-b73e-898dd362c399-attr-2-name" class="er entityLabel">firstName</text><rect height="22" width="41.12232971191406" y="68" x="0" class="er attributeBoxOdd"></rect><text style="dominant-baseline: middle; font-size: 10.2px;" transform="translate(5,79)" y="0" x="0" id="text-entity-User-3f6ff853-6bc7-4115-b73e-898dd362c399-attr-3-type" class="er entityLabel">String</text><rect height="22" width="58.87767028808594" y="68" x="41.12232971191406" class="er attributeBoxOdd"></rect><text style="dominant-baseline: middle; font-size: 10.2px;" transform="translate(46.12232971191406,79)" y="0" x="0" id="text-entity-User-3f6ff853-6bc7-4115-b73e-898dd362c399-attr-3-name" class="er entityLabel">lastName</text><rect height="22" width="41.12232971191406" y="90" x="0" class="er attributeBoxEven"></rect><text style="dominant-baseline: middle; font-size: 10.2px;" transform="translate(5,101)" y="0" x="0" id="text-entity-User-3f6ff853-6bc7-4115-b73e-898dd362c399-attr-4-type" class="er entityLabel">String</text><rect height="22" width="58.87767028808594" y="90" x="41.12232971191406" class="er attributeBoxEven"></rect><text style="dominant-baseline: middle; font-size: 10.2px;" transform="translate(46.12232971191406,101)" y="0" x="0" id="text-entity-User-3f6ff853-6bc7-4115-b73e-898dd362c399-attr-4-name" class="er entityLabel">title</text><rect height="22" width="41.12232971191406" y="112" x="0" class="er attributeBoxOdd"></rect><text style="dominant-baseline: middle; font-size: 10.2px;" transform="translate(5,123)" y="0" x="0" id="text-entity-User-3f6ff853-6bc7-4115-b73e-898dd362c399-attr-5-type" class="er entityLabel">String</text><rect height="22" width="58.87767028808594" y="112" x="41.12232971191406" class="er attributeBoxOdd"></rect><text style="dominant-baseline: middle; font-size: 10.2px;" transform="translate(46.12232971191406,123)" y="0" x="0" id="text-entity-User-3f6ff853-6bc7-4115-b73e-898dd362c399-attr-5-name" class="er entityLabel">email</text><rect height="22" width="41.12232971191406" y="134" x="0" class="er attributeBoxEven"></rect><text style="dominant-baseline: middle; font-size: 10.2px;" transform="translate(5,145)" y="0" x="0" id="text-entity-User-3f6ff853-6bc7-4115-b73e-898dd362c399-attr-6-type" class="er entityLabel">Role</text><rect height="22" width="58.87767028808594" y="134" x="41.12232971191406" class="er attributeBoxEven"></rect><text style="dominant-baseline: middle; font-size: 10.2px;" transform="translate(46.12232971191406,145)" y="0" x="0" id="text-entity-User-3f6ff853-6bc7-4115-b73e-898dd362c399-attr-6-name" class="er entityLabel">role</text><rect height="22" width="41.12232971191406" y="156" x="0" class="er attributeBoxOdd"></rect><text style="dominant-baseline: middle; font-size: 10.2px;" transform="translate(5,167)" y="0" x="0" id="text-entity-User-3f6ff853-6bc7-4115-b73e-898dd362c399-attr-7-type" class="er entityLabel">String</text><rect height="22" width="58.87767028808594" y="156" x="41.12232971191406" class="er attributeBoxOdd"></rect><text style="dominant-baseline: middle; font-size: 10.2px;" transform="translate(46.12232971191406,167)" y="0" x="0" id="text-entity-User-3f6ff853-6bc7-4115-b73e-898dd362c399-attr-7-name" class="er entityLabel">about</text><rect height="22" width="41.12232971191406" y="178" x="0" class="er attributeBoxEven"></rect><text style="dominant-baseline: middle; font-size: 10.2px;" transform="translate(5,189)" y="0" x="0" id="text-entity-User-3f6ff853-6bc7-4115-b73e-898dd362c399-attr-8-type" class="er entityLabel">String</text><rect height="22" width="58.87767028808594" y="178" x="41.12232971191406" class="er attributeBoxEven"></rect><text style="dominant-baseline: middle; font-size: 10.2px;" transform="translate(46.12232971191406,189)" y="0" x="0" id="text-entity-User-3f6ff853-6bc7-4115-b73e-898dd362c399-attr-8-name" class="er entityLabel">skills</text></g><g transform="translate(20,108 )" id="entity-Social-e145d0c4-eb81-4f15-b931-cd017fb5c359"><rect height="90" width="100" y="0" x="0" class="er entityBox"></rect><text style="dominant-baseline: middle; text-anchor: middle; font-size: 12px;" transform="translate(50,12)" y="0" x="0" id="text-entity-Social-e145d0c4-eb81-4f15-b931-cd017fb5c359" class="er entityLabel">Social</text><rect height="22" width="43.54693603515625" y="24" x="0" class="er attributeBoxOdd"></rect><text style="dominant-baseline: middle; font-size: 10.2px;" transform="translate(5,35)" y="0" x="0" id="text-entity-Social-e145d0c4-eb81-4f15-b931-cd017fb5c359-attr-1-type" class="er entityLabel">String</text><rect height="22" width="56.45306396484375" y="24" x="43.54693603515625" class="er attributeBoxOdd"></rect><text style="dominant-baseline: middle; font-size: 10.2px;" transform="translate(48.54693603515625,35)" y="0" x="0" id="text-entity-Social-e145d0c4-eb81-4f15-b931-cd017fb5c359-attr-1-name" class="er entityLabel">id</text><rect height="22" width="43.54693603515625" y="46" x="0" class="er attributeBoxEven"></rect><text style="dominant-baseline: middle; font-size: 10.2px;" transform="translate(5,57)" y="0" x="0" id="text-entity-Social-e145d0c4-eb81-4f15-b931-cd017fb5c359-attr-2-type" class="er entityLabel">String</text><rect height="22" width="56.45306396484375" y="46" x="43.54693603515625" class="er attributeBoxEven"></rect><text style="dominant-baseline: middle; font-size: 10.2px;" transform="translate(48.54693603515625,57)" y="0" x="0" id="text-entity-Social-e145d0c4-eb81-4f15-b931-cd017fb5c359-attr-2-name" class="er entityLabel">platform</text><rect height="22" width="43.54693603515625" y="68" x="0" class="er attributeBoxOdd"></rect><text style="dominant-baseline: middle; font-size: 10.2px;" transform="translate(5,79)" y="0" x="0" id="text-entity-Social-e145d0c4-eb81-4f15-b931-cd017fb5c359-attr-3-type" class="er entityLabel">String</text><rect height="22" width="56.45306396484375" y="68" x="43.54693603515625" class="er attributeBoxOdd"></rect><text style="dominant-baseline: middle; font-size: 10.2px;" transform="translate(48.54693603515625,79)" y="0" x="0" id="text-entity-Social-e145d0c4-eb81-4f15-b931-cd017fb5c359-attr-3-name" class="er entityLabel">url</text></g><g transform="translate(220,75 )" id="entity-Education-4cb10686-49e1-4efa-94ad-a1b9ab2776d1"><rect height="156" width="121.87739562988281" y="0" x="0" class="er entityBox"></rect><text style="dominant-baseline: middle; text-anchor: middle; font-size: 12px;" transform="translate(60.938697814941406,12)" y="0" x="0" id="text-entity-Education-4cb10686-49e1-4efa-94ad-a1b9ab2776d1" class="er entityLabel">Education</text><rect height="22" width="54.095550537109375" y="24" x="0" class="er attributeBoxOdd"></rect><text style="dominant-baseline: middle; font-size: 10.2px;" transform="translate(5,35)" y="0" x="0" id="text-entity-Education-4cb10686-49e1-4efa-94ad-a1b9ab2776d1-attr-1-type" class="er entityLabel">String</text><rect height="22" width="67.78184509277344" y="24" x="54.095550537109375" class="er attributeBoxOdd"></rect><text style="dominant-baseline: middle; font-size: 10.2px;" transform="translate(59.095550537109375,35)" y="0" x="0" id="text-entity-Education-4cb10686-49e1-4efa-94ad-a1b9ab2776d1-attr-1-name" class="er entityLabel">id</text><rect height="22" width="54.095550537109375" y="46" x="0" class="er attributeBoxEven"></rect><text style="dominant-baseline: middle; font-size: 10.2px;" transform="translate(5,57)" y="0" x="0" id="text-entity-Education-4cb10686-49e1-4efa-94ad-a1b9ab2776d1-attr-2-type" class="er entityLabel">String</text><rect height="22" width="67.78184509277344" y="46" x="54.095550537109375" class="er attributeBoxEven"></rect><text style="dominant-baseline: middle; font-size: 10.2px;" transform="translate(59.095550537109375,57)" y="0" x="0" id="text-entity-Education-4cb10686-49e1-4efa-94ad-a1b9ab2776d1-attr-2-name" class="er entityLabel">institution</text><rect height="22" width="54.095550537109375" y="68" x="0" class="er attributeBoxOdd"></rect><text style="dominant-baseline: middle; font-size: 10.2px;" transform="translate(5,79)" y="0" x="0" id="text-entity-Education-4cb10686-49e1-4efa-94ad-a1b9ab2776d1-attr-3-type" class="er entityLabel">String</text><rect height="22" width="67.78184509277344" y="68" x="54.095550537109375" class="er attributeBoxOdd"></rect><text style="dominant-baseline: middle; font-size: 10.2px;" transform="translate(59.095550537109375,79)" y="0" x="0" id="text-entity-Education-4cb10686-49e1-4efa-94ad-a1b9ab2776d1-attr-3-name" class="er entityLabel">fieldOfStudy</text><rect height="22" width="54.095550537109375" y="90" x="0" class="er attributeBoxEven"></rect><text style="dominant-baseline: middle; font-size: 10.2px;" transform="translate(5,101)" y="0" x="0" id="text-entity-Education-4cb10686-49e1-4efa-94ad-a1b9ab2776d1-attr-4-type" class="er entityLabel">DateTime</text><rect height="22" width="67.78184509277344" y="90" x="54.095550537109375" class="er attributeBoxEven"></rect><text style="dominant-baseline: middle; font-size: 10.2px;" transform="translate(59.095550537109375,101)" y="0" x="0" id="text-entity-Education-4cb10686-49e1-4efa-94ad-a1b9ab2776d1-attr-4-name" class="er entityLabel">startDate</text><rect height="22" width="54.095550537109375" y="112" x="0" class="er attributeBoxOdd"></rect><text style="dominant-baseline: middle; font-size: 10.2px;" transform="translate(5,123)" y="0" x="0" id="text-entity-Education-4cb10686-49e1-4efa-94ad-a1b9ab2776d1-attr-5-type" class="er entityLabel">DateTime</text><rect height="22" width="67.78184509277344" y="112" x="54.095550537109375" class="er attributeBoxOdd"></rect><text style="dominant-baseline: middle; font-size: 10.2px;" transform="translate(59.095550537109375,123)" y="0" x="0" id="text-entity-Education-4cb10686-49e1-4efa-94ad-a1b9ab2776d1-attr-5-name" class="er entityLabel">endDate</text><rect height="22" width="54.095550537109375" y="134" x="0" class="er attributeBoxEven"></rect><text style="dominant-baseline: middle; font-size: 10.2px;" transform="translate(5,145)" y="0" x="0" id="text-entity-Education-4cb10686-49e1-4efa-94ad-a1b9ab2776d1-attr-6-type" class="er entityLabel">String</text><rect height="22" width="67.78184509277344" y="134" x="54.095550537109375" class="er attributeBoxEven"></rect><text style="dominant-baseline: middle; font-size: 10.2px;" transform="translate(59.095550537109375,145)" y="0" x="0" id="text-entity-Education-4cb10686-49e1-4efa-94ad-a1b9ab2776d1-attr-6-name" class="er entityLabel">description</text></g><g transform="translate(441.8773956298828,20 )" id="entity-Experience-6de131e2-3af8-4243-917a-a12a8b500e12"><rect height="266" width="143.3083038330078" y="0" x="0" class="er entityBox"></rect><text style="dominant-baseline: middle; text-anchor: middle; font-size: 12px;" transform="translate(71.6541519165039,12)" y="0" x="0" id="text-entity-Experience-6de131e2-3af8-4243-917a-a12a8b500e12" class="er entityLabel">Experience</text><rect height="22" width="81.90145874023438" y="24" x="0" class="er attributeBoxOdd"></rect><text style="dominant-baseline: middle; font-size: 10.2px;" transform="translate(5,35)" y="0" x="0" id="text-entity-Experience-6de131e2-3af8-4243-917a-a12a8b500e12-attr-1-type" class="er entityLabel">String</text><rect height="22" width="61.40684509277344" y="24" x="81.90145874023438" class="er attributeBoxOdd"></rect><text style="dominant-baseline: middle; font-size: 10.2px;" transform="translate(86.90145874023438,35)" y="0" x="0" id="text-entity-Experience-6de131e2-3af8-4243-917a-a12a8b500e12-attr-1-name" class="er entityLabel">id</text><rect height="22" width="81.90145874023438" y="46" x="0" class="er attributeBoxEven"></rect><text style="dominant-baseline: middle; font-size: 10.2px;" transform="translate(5,57)" y="0" x="0" id="text-entity-Experience-6de131e2-3af8-4243-917a-a12a8b500e12-attr-2-type" class="er entityLabel">ExperienceType</text><rect height="22" width="61.40684509277344" y="46" x="81.90145874023438" class="er attributeBoxEven"></rect><text style="dominant-baseline: middle; font-size: 10.2px;" transform="translate(86.90145874023438,57)" y="0" x="0" id="text-entity-Experience-6de131e2-3af8-4243-917a-a12a8b500e12-attr-2-name" class="er entityLabel">type</text><rect height="22" width="81.90145874023438" y="68" x="0" class="er attributeBoxOdd"></rect><text style="dominant-baseline: middle; font-size: 10.2px;" transform="translate(5,79)" y="0" x="0" id="text-entity-Experience-6de131e2-3af8-4243-917a-a12a8b500e12-attr-3-type" class="er entityLabel">String</text><rect height="22" width="61.40684509277344" y="68" x="81.90145874023438" class="er attributeBoxOdd"></rect><text style="dominant-baseline: middle; font-size: 10.2px;" transform="translate(86.90145874023438,79)" y="0" x="0" id="text-entity-Experience-6de131e2-3af8-4243-917a-a12a8b500e12-attr-3-name" class="er entityLabel">title</text><rect height="22" width="81.90145874023438" y="90" x="0" class="er attributeBoxEven"></rect><text style="dominant-baseline: middle; font-size: 10.2px;" transform="translate(5,101)" y="0" x="0" id="text-entity-Experience-6de131e2-3af8-4243-917a-a12a8b500e12-attr-4-type" class="er entityLabel">DateTime</text><rect height="22" width="61.40684509277344" y="90" x="81.90145874023438" class="er attributeBoxEven"></rect><text style="dominant-baseline: middle; font-size: 10.2px;" transform="translate(86.90145874023438,101)" y="0" x="0" id="text-entity-Experience-6de131e2-3af8-4243-917a-a12a8b500e12-attr-4-name" class="er entityLabel">startDate</text><rect height="22" width="81.90145874023438" y="112" x="0" class="er attributeBoxOdd"></rect><text style="dominant-baseline: middle; font-size: 10.2px;" transform="translate(5,123)" y="0" x="0" id="text-entity-Experience-6de131e2-3af8-4243-917a-a12a8b500e12-attr-5-type" class="er entityLabel">DateTime</text><rect height="22" width="61.40684509277344" y="112" x="81.90145874023438" class="er attributeBoxOdd"></rect><text style="dominant-baseline: middle; font-size: 10.2px;" transform="translate(86.90145874023438,123)" y="0" x="0" id="text-entity-Experience-6de131e2-3af8-4243-917a-a12a8b500e12-attr-5-name" class="er entityLabel">endDate</text><rect height="22" width="81.90145874023438" y="134" x="0" class="er attributeBoxEven"></rect><text style="dominant-baseline: middle; font-size: 10.2px;" transform="translate(5,145)" y="0" x="0" id="text-entity-Experience-6de131e2-3af8-4243-917a-a12a8b500e12-attr-6-type" class="er entityLabel">String</text><rect height="22" width="61.40684509277344" y="134" x="81.90145874023438" class="er attributeBoxEven"></rect><text style="dominant-baseline: middle; font-size: 10.2px;" transform="translate(86.90145874023438,145)" y="0" x="0" id="text-entity-Experience-6de131e2-3af8-4243-917a-a12a8b500e12-attr-6-name" class="er entityLabel">description</text><rect height="22" width="81.90145874023438" y="156" x="0" class="er attributeBoxOdd"></rect><text style="dominant-baseline: middle; font-size: 10.2px;" transform="translate(5,167)" y="0" x="0" id="text-entity-Experience-6de131e2-3af8-4243-917a-a12a8b500e12-attr-7-type" class="er entityLabel">String</text><rect height="22" width="61.40684509277344" y="156" x="81.90145874023438" class="er attributeBoxOdd"></rect><text style="dominant-baseline: middle; font-size: 10.2px;" transform="translate(86.90145874023438,167)" y="0" x="0" id="text-entity-Experience-6de131e2-3af8-4243-917a-a12a8b500e12-attr-7-name" class="er entityLabel">url</text><rect height="22" width="81.90145874023438" y="178" x="0" class="er attributeBoxEven"></rect><text style="dominant-baseline: middle; font-size: 10.2px;" transform="translate(5,189)" y="0" x="0" id="text-entity-Experience-6de131e2-3af8-4243-917a-a12a8b500e12-attr-8-type" class="er entityLabel">String</text><rect height="22" width="61.40684509277344" y="178" x="81.90145874023438" class="er attributeBoxEven"></rect><text style="dominant-baseline: middle; font-size: 10.2px;" transform="translate(86.90145874023438,189)" y="0" x="0" id="text-entity-Experience-6de131e2-3af8-4243-917a-a12a8b500e12-attr-8-name" class="er entityLabel">imgSrc</text><rect height="22" width="81.90145874023438" y="200" x="0" class="er attributeBoxOdd"></rect><text style="dominant-baseline: middle; font-size: 10.2px;" transform="translate(5,211)" y="0" x="0" id="text-entity-Experience-6de131e2-3af8-4243-917a-a12a8b500e12-attr-9-type" class="er entityLabel">String</text><rect height="22" width="61.40684509277344" y="200" x="81.90145874023438" class="er attributeBoxOdd"></rect><text style="dominant-baseline: middle; font-size: 10.2px;" transform="translate(86.90145874023438,211)" y="0" x="0" id="text-entity-Experience-6de131e2-3af8-4243-917a-a12a8b500e12-attr-9-name" class="er entityLabel">tools</text><rect height="22" width="81.90145874023438" y="222" x="0" class="er attributeBoxEven"></rect><text style="dominant-baseline: middle; font-size: 10.2px;" transform="translate(5,233)" y="0" x="0" id="text-entity-Experience-6de131e2-3af8-4243-917a-a12a8b500e12-attr-10-type" class="er entityLabel">String</text><rect height="22" width="61.40684509277344" y="222" x="81.90145874023438" class="er attributeBoxEven"></rect><text style="dominant-baseline: middle; font-size: 10.2px;" transform="translate(86.90145874023438,233)" y="0" x="0" id="text-entity-Experience-6de131e2-3af8-4243-917a-a12a8b500e12-attr-10-name" class="er entityLabel">company</text><rect height="22" width="81.90145874023438" y="244" x="0" class="er attributeBoxOdd"></rect><text style="dominant-baseline: middle; font-size: 10.2px;" transform="translate(5,255)" y="0" x="0" id="text-entity-Experience-6de131e2-3af8-4243-917a-a12a8b500e12-attr-11-type" class="er entityLabel">String</text><rect height="22" width="61.40684509277344" y="244" x="81.90145874023438" class="er attributeBoxOdd"></rect><text style="dominant-baseline: middle; font-size: 10.2px;" transform="translate(86.90145874023438,255)" y="0" x="0" id="text-entity-Experience-6de131e2-3af8-4243-917a-a12a8b500e12-attr-11-name" class="er entityLabel">role</text></g><g transform="translate(685.1856994628906,97 )" id="entity-Location-4e7acd45-d082-4411-b5f3-2c43c6003cc0"><rect height="112" width="100" y="0" x="0" class="er entityBox"></rect><text style="dominant-baseline: middle; text-anchor: middle; font-size: 12px;" transform="translate(50,12)" y="0" x="0" id="text-entity-Location-4e7acd45-d082-4411-b5f3-2c43c6003cc0" class="er entityLabel">Location</text><rect height="22" width="43.87403106689453" y="24" x="0" class="er attributeBoxOdd"></rect><text style="dominant-baseline: middle; font-size: 10.2px;" transform="translate(5,35)" y="0" x="0" id="text-entity-Location-4e7acd45-d082-4411-b5f3-2c43c6003cc0-attr-1-type" class="er entityLabel">String</text><rect height="22" width="56.12596893310547" y="24" x="43.87403106689453" class="er attributeBoxOdd"></rect><text style="dominant-baseline: middle; font-size: 10.2px;" transform="translate(48.87403106689453,35)" y="0" x="0" id="text-entity-Location-4e7acd45-d082-4411-b5f3-2c43c6003cc0-attr-1-name" class="er entityLabel">id</text><rect height="22" width="43.87403106689453" y="46" x="0" class="er attributeBoxEven"></rect><text style="dominant-baseline: middle; font-size: 10.2px;" transform="translate(5,57)" y="0" x="0" id="text-entity-Location-4e7acd45-d082-4411-b5f3-2c43c6003cc0-attr-2-type" class="er entityLabel">String</text><rect height="22" width="56.12596893310547" y="46" x="43.87403106689453" class="er attributeBoxEven"></rect><text style="dominant-baseline: middle; font-size: 10.2px;" transform="translate(48.87403106689453,57)" y="0" x="0" id="text-entity-Location-4e7acd45-d082-4411-b5f3-2c43c6003cc0-attr-2-name" class="er entityLabel">city</text><rect height="22" width="43.87403106689453" y="68" x="0" class="er attributeBoxOdd"></rect><text style="dominant-baseline: middle; font-size: 10.2px;" transform="translate(5,79)" y="0" x="0" id="text-entity-Location-4e7acd45-d082-4411-b5f3-2c43c6003cc0-attr-3-type" class="er entityLabel">String</text><rect height="22" width="56.12596893310547" y="68" x="43.87403106689453" class="er attributeBoxOdd"></rect><text style="dominant-baseline: middle; font-size: 10.2px;" transform="translate(48.87403106689453,79)" y="0" x="0" id="text-entity-Location-4e7acd45-d082-4411-b5f3-2c43c6003cc0-attr-3-name" class="er entityLabel">country</text><rect height="22" width="43.87403106689453" y="90" x="0" class="er attributeBoxEven"></rect><text style="dominant-baseline: middle; font-size: 10.2px;" transform="translate(5,101)" y="0" x="0" id="text-entity-Location-4e7acd45-d082-4411-b5f3-2c43c6003cc0-attr-4-type" class="er entityLabel">String</text><rect height="22" width="56.12596893310547" y="90" x="43.87403106689453" class="er attributeBoxEven"></rect><text style="dominant-baseline: middle; font-size: 10.2px;" transform="translate(48.87403106689453,101)" y="0" x="0" id="text-entity-Location-4e7acd45-d082-4411-b5f3-2c43c6003cc0-attr-4-name" class="er entityLabel">province</text></g><rect height="14" width="68.513671875" y="362.47149658203125" x="128.10202026367188" class="er relationshipLabelBox"></rect><text style="text-anchor: middle; dominant-baseline: middle; font-size: 12px;" y="369.47149658203125" x="162.35885620117188" id="rel1" class="er relationshipLabel">SocialToUser</text><rect height="14" width="90.1875" y="326.77386474609375" x="247.25479125976562" class="er relationshipLabelBox"></rect><text style="text-anchor: middle; dominant-baseline: middle; font-size: 12px;" y="333.77386474609375" x="292.3485412597656" id="rel2" class="er relationshipLabel">EducationToUser</text><rect height="14" width="96.439453125" y="352.0700988769531" x="444.6107482910156" class="er relationshipLabelBox"></rect><text style="text-anchor: middle; dominant-baseline: middle; font-size: 12px;" y="359.0700988769531" x="492.8304748535156" id="rel3" class="er relationshipLabel">ExperienceToUser</text><rect height="14" width="83.033203125" y="366.77044677734375" x="592.1890869140625" class="er relationshipLabelBox"></rect><text style="text-anchor: middle; dominant-baseline: middle; font-size: 12px;" y="373.77044677734375" x="633.7056884765625" id="rel4" class="er relationshipLabel">LocationToUser</text></svg>